:SAMPLES-PER-SECOND 30
:FULLY-SPECIFIED
:DEGREES
497
root  -59.7794 39.1501 16.9395 -164.12 3.74028 176.106
RightUpLeg  -51.3806 -28.1692 7.11233
RightLeg  41.974 19.6361 17.7063
RightFoot  5.42101 -4.32172 29.1005
RightToes  0.000482159 0.542163 -0.142577
Spine  60.8464 -0.0699047 -1.29926
Spine1  9.99804 0.537484 -1.21658
HEad  -28.0199 -13.5701 12.6751
LeftShoulder1  10.4124 -22.6012 -33.7302
LeftArm  -24.5993 -41.3418 -18.0539
LeftForeArm  17.7686 -4.1575 -4.23157
LeftHand  -0.25398 0.0180481 5.50724
RightShoulder  4.9071 13.8617 21.9634
RightArm  -20.5915 46.5984 31.1655
RightForeArm  -1.57487 9.84375 5.99302
RightHand  -2.43116 6.33171 -24.1395
LeftUpLeg  -47.6299 38.8799 -21.7593
LeftLeg  24.1343 1.88263 1.28339
LeftFoot  -0.364759 -0.501664 5.24383
LeftToes  1.06248e-005 4.65855e-005 -8.18498e-006
498
root  -59.2647 39.3099 16.8244 -166.761 4.73544 176.195
RightUpLeg  -47.98 -27.2537 1.76884
RightLeg  43.2073 17.9786 17.0084
RightFoot  3.93006 -4.14361 30.3448
RightToes  0.000482159 0.542163 -0.142577
Spine  59.6571 0.201003 -1.80749
Spine1  9.10163 0.378033 -0.900265
HEad  -26.022 -13.3076 11.7513
LeftShoulder1  10.8716 -21.9401 -36.5342
LeftArm  -21.4032 -33.4805 -19.716
LeftForeArm  17.3935 -5.36609 -4.66642
LeftHand  -0.25398 0.0180481 5.50724
RightShoulder  5.25793 13.5331 24.7121
RightArm  -20.3427 40.3999 29.1745
RightForeArm  -3.78121 10.9592 6.0991
RightHand  -2.64025 6.93794 -24.8971
LeftUpLeg  -42.8424 39.6927 -17.5922
LeftLeg  23.1943 2.9967 1.68603
LeftFoot  0.0879801 -0.34402 3.44605
LeftToes  1.06248e-005 4.65855e-005 -8.18498e-006
499
root  -58.7236 39.5619 16.6826 -168.787 5.70819 176.942
RightUpLeg  -44.4825 -24.0999 -3.26066
RightLeg  41.3653 11.7427 10.6634
RightFoot  2.57414 -2.76992 22.5494
RightToes  0.000482159 0.542163 -0.142577
Spine  58.3953 -0.0296887 -1.16003
Spine1  8.44339 0.0799593 -0.564566
HEad  -24.2645 -12.9319 10.7282
LeftShoulder1  11.1458 -21.1319 -38.9741
LeftArm  -19.3467 -25.8799 -20.2659
LeftForeArm  17.0055 -6.53656 -4.88276
LeftHand  -0.25398 0.0180481 5.50724
RightShoulder  5.50568 13.2133 26.8722
RightArm  -20.0333 34.8954 26.9979
RightForeArm  -5.55674 11.9389 6.16438
RightHand  -2.52611 6.70727 -24.2901
LeftUpLeg  -37.5871 39.0327 -12.1959
LeftLeg  21.4249 5.3669 2.24978
LeftFoot  0.942871 -0.148668 1.32553
LeftToes  1.06248e-005 4.65855e-005 -8.18498e-006
500
root  -58.0906 39.7082 16.4935 -170.613 6.52959 177.393
RightUpLeg  -40.7176 -19.8165 -8.29928
RightLeg  37.496 4.75695 3.66637
RightFoot  1.08618 -1.53431 14.0889
RightToes  0.000482159 0.542163 -0.142577
Spine  56.9924 -0.468623 -0.663127
Spine1  7.92764 -0.318961 -0.489689
HEad  -22.4799 -12.585 9.73851
LeftShoulder1  11.252 -20.2561 -40.9931
LeftArm  -17.7667 -18.7665 -20.2083
LeftForeArm  16.7142 -7.35931 -5.00076
LeftHand  -0.25398 0.0180481 5.50724
RightShoulder  5.75291 13.0518 28.7411
RightArm  -19.3036 30.1856 24.5963
RightForeArm  -8.25994 12.7381 6.34731
RightHand  -2.3516 6.03975 -23.9432
LeftUpLeg  -33.0037 38.0411 -7.40648
LeftLeg  20.4179 7.53492 2.78362
LeftFoot  1.34523 0.0520381 -0.547477
LeftToes  1.06248e-005 4.65855e-005 -8.18498e-006
501
root  -57.2939 39.6753 16.2785 -172.582 7.14299 177.108
RightUpLeg  -36.6757 -15.0287 -13.6453
RightLeg  32.8087 0.057861 -0.224083
RightFoot  -1.21129 -0.852605 9.54718
RightToes  0.000482159 0.542163 -0.142577
Spine  55.5493 -0.664682 -0.849871
Spine1  7.38435 -0.652915 -0.600555
HEad  -20.4072 -12.8412 9.14389
LeftShoulder1  11.2561 -19.5716 -42.3305
LeftArm  -16.2569 -12.0804 -20.1735
LeftForeArm  16.2879 -7.74236 -5.10246
LeftHand  -0.25398 0.0180481 5.50724
RightShoulder  5.92285 12.8082 30.3447
RightArm  -17.9842 25.8876 22.282
RightForeArm  -11.1671 13.5013 6.56224
RightHand  -2.26175 5.45058 -24.2483
LeftUpLeg  -29.4108 38.1111 -3.96806
LeftLeg  20.538 8.18119 3.119
LeftFoot  1.43744 0.241336 -2.23149
LeftToes  1.06248e-005 4.65855e-005 -8.18498e-006
502
root  -56.3558 39.5046 16.0604 -174.589 7.60223 176.388
RightUpLeg  -33.0706 -9.78947 -18.7684
RightLeg  28.2642 -2.2475 -1.55063
RightFoot  -3.35404 -0.547222 7.53174
RightToes  0.000482159 0.542163 -0.142577
Spine  54.1176 -0.432625 -1.17711
Spine1  6.67586 -0.60661 -0.621801
HEad  -18.4164 -14.1478 9.04638
LeftShoulder1  11.3036 -19.362 -42.9447
LeftArm  -15.1596 -5.89683 -20.6203
LeftForeArm  16.1296 -7.69992 -5.03699
LeftHand  -0.25398 0.0180481 5.50724
RightShoulder  5.79393 12.0187 31.3675
RightArm  -15.9514 21.4826 20.438
RightForeArm  -12.875 14.5847 6.63849
RightHand  -2.20097 5.09278 -24.3864
LeftUpLeg  -26.5324 39.4146 -1.40655
LeftLeg  21.2368 7.24152 3.20497
LeftFoot  1.58041 0.455614 -4.10947
LeftToes  1.06248e-005 4.65855e-005 -8.18498e-006
503
root  -55.3138 39.2268 15.8278 -176.504 7.87328 175.597
RightUpLeg  -30.1676 -4.85401 -22.8802
RightLeg  24.5473 -3.29172 -1.86479
RightFoot  -4.58623 -0.401937 6.28298
RightToes  0.000482159 0.542163 -0.142577
Spine  52.5826 -0.315855 -1.5767
Spine1  6.09863 -0.739413 -0.553657
HEad  -16.9266 -14.9106 8.8161
LeftShoulder1  11.1581 -18.8938 -43.305
LeftArm  -14.7542 0.0471701 -21.0485
LeftForeArm  16.131 -8.19302 -4.80555
LeftHand  -0.25398 0.0180481 5.50724
RightShoulder  5.66355 11.6242 31.4848
RightArm  -13.5517 17.3263 19.404
RightForeArm  -13.3805 15.6181 6.60243
RightHand  -2.1353 4.87681 -24.1622
LeftUpLeg  -23.8761 40.2773 1.43092
LeftLeg  22.4677 6.25325 3.20178
LeftFoot  1.55394 0.662467 -5.94707
LeftToes  1.06248e-005 4.65855e-005 -8.18498e-006
504
root  -54.1618 38.8886 15.5696 -178.304 7.91447 174.907
RightUpLeg  -27.5955 -1.60696 -25.168
RightLeg  21.9517 -3.39878 -1.72363
RightFoot  -5.20752 -0.336024 5.62796
RightToes  0.000482159 0.542163 -0.142577
Spine  50.9658 -0.366098 -1.97467
Spine1  5.81966 -1.06156 -0.369614
HEad  -15.8778 -14.7923 8.27543
LeftShoulder1  10.839 -18.2579 -43.3009
LeftArm  -14.687 6.14558 -21.6453
LeftForeArm  15.761 -9.92308 -4.53179
LeftHand  -0.25398 0.0180481 5.50724
RightShoulder  5.62974 11.5375 31.4771
RightArm  -10.7527 13.8535 18.7062
RightForeArm  -13.9461 16.7216 6.52823
RightHand  -2.04185 4.57299 -23.8163
LeftUpLeg  -21.1512 39.7814 4.89692
LeftLeg  23.7811 6.19122 3.3259
LeftFoot  1.72763 0.806261 -7.1248
LeftToes  1.06248e-005 4.65855e-005 -8.18498e-006
505
root  -52.8639 38.5795 15.302 -179.702 7.78163 174.408
RightUpLeg  -25.6312 -0.79898 -25.2909
RightLeg  20.9732 -2.47587 -1.25695
RightFoot  -4.67907 -0.398977 6.25881
RightToes  0.000482159 0.542163 -0.142577
Spine  49.2182 -0.377115 -2.06446
Spine1  5.77069 -1.21609 -0.0489115
HEad  -15.1233 -14.8708 7.98119
LeftShoulder1  10.5379 -17.8546 -42.8716
LeftArm  -14.4882 12.1869 -22.467
LeftForeArm  14.1993 -12.6558 -4.26756
LeftHand  -0.25398 0.0180481 5.50724
RightShoulder  5.6145 11.249 32.1121
RightArm  -8.14509 10.8734 18.058
RightForeArm  -14.4085 18.4488 6.22261
RightHand  -1.87545 4.0331 -23.1357
LeftUpLeg  -18.4529 38.9328 8.35079
LeftLeg  23.8102 6.33382 3.44807
LeftFoot  3.10045 0.990017 -7.94004
LeftToes  1.06248e-005 4.65855e-005 -8.18498e-006
506
root  -51.3904 38.3962 15.042 179.766 7.43553 174.14
RightUpLeg  -25.1111 -2.04782 -23.7488
RightLeg  22.0197 -1.05865 -0.681035
RightFoot  -2.42277 -0.657039 8.15444
RightToes  0.000482159 0.542163 -0.142577
Spine  47.1608 -0.587018 -1.51634
Spine1  5.93638 -1.19395 -0.000585785
HEad  -14.8317 -15.793 8.45048
LeftShoulder1  10.2897 -17.5215 -42.5053
LeftArm  -14.7232 17.2355 -22.9665
LeftForeArm  11.8919 -15.4839 -3.99965
LeftHand  -0.25398 0.0180481 5.50724
RightShoulder  5.69181 10.9705 33.3758
RightArm  -7.26047 8.05408 17.694
RightForeArm  -13.4893 20.7245 5.72555
RightHand  -1.67276 3.49324 -21.9227
LeftUpLeg  -15.6539 37.5474 11.6268
LeftLeg  21.5232 6.60639 2.92335
LeftFoot  5.01864 1.29831 -9.23115
LeftToes  1.06248e-005 4.65855e-005 -8.18498e-006
507
root  -49.7568 38.3881 14.7843 -179.981 6.61334 174.063
RightUpLeg  -25.8299 -4.60398 -21.2848
RightLeg  24.5182 0.245616 -0.0935179
RightFoot  -0.109108 -0.942778 9.60116
RightToes  0.000482159 0.542163 -0.142577
Spine  44.8842 -1.14785 -0.442137
Spine1  6.35729 -1.23268 -0.260456
HEad  -14.8556 -17.2524 9.3144
LeftShoulder1  10.1099 -17.0381 -42.7669
LeftArm  -15.9575 20.617 -22.9183
LeftForeArm  10.4096 -17.661 -3.8253
LeftHand  -0.25398 0.0180481 5.50724
RightShoulder  5.8371 10.8798 34.6232
RightArm  -8.14174 5.69605 17.9682
RightForeArm  -11.6289 22.5748 5.49468
RightHand  -1.52082 3.19545 -20.6637
LeftUpLeg  -12.2447 30.834 15.5833
LeftLeg  17.2276 11.2253 1.35288
LeftFoot  4.85075 1.47374 -10.5736
LeftToes  1.06248e-005 4.65855e-005 -8.18498e-006
508
root  -48.0509 38.5267 14.5248 -179.685 5.17575 174.26
RightUpLeg  -26.364 -7.99523 -18.232
RightLeg  27.2329 1.46261 0.593056
RightFoot  -0.120071 -0.878485 8.88193
RightToes  0.000482159 0.542163 -0.142577
Spine  42.8448 -1.81608 0.668256
Spine1  6.73564 -1.57785 0.0640739
HEad  -14.2494 -18.5416 9.70075
LeftShoulder1  10.0404 -16.5136 -43.6398
LeftArm  -17.4339 22.8312 -22.7776
LeftForeArm  10.424 -19.186 -3.79307
LeftHand  -0.25398 0.0180481 5.50724
RightShoulder  5.91108 10.8118 35.3227
RightArm  -8.04826 4.40684 18.9342
RightForeArm  -10.8361 23.0021 5.5011
RightHand  -1.38234 2.8218 -19.6527
LeftUpLeg  -8.70069 18.7304 19.456
LeftLeg  11.6529 20.9776 -0.252121
LeftFoot  1.7341 1.18121 -10.3035
LeftToes  1.06248e-005 4.65855e-005 -8.18498e-006
509
root  -46.3746 38.744 14.2852 -179.885 3.34427 174.833
RightUpLeg  -25.6513 -11.5276 -14.8331
RightLeg  28.9848 2.26727 1.12527
RightFoot  -2.13219 -0.544297 6.54727
RightToes  0.000482159 0.542163 -0.142577
Spine  41.5165 -2.30285 1.41893
Spine1  6.38841 -2.23161 1.58723
HEad  -12.4703 -19.4654 9.52158
LeftShoulder1  10.0407 -16.1161 -44.5738
LeftArm  -18.2644 24.7277 -23.0667
LeftForeArm  11.7191 -20.318 -3.83312
LeftHand  -0.25398 0.0180481 5.50724
RightShoulder  5.86542 10.6366 35.5076
RightArm  -5.37069 3.90784 20.3746
RightForeArm  -10.8009 22.3398 5.47538
RightHand  -1.112 1.75665 -18.111
LeftUpLeg  -6.15407 14.9043 20.8473
LeftLeg  6.47525 24.4348 -0.515999
LeftFoot  -1.46129 0.665683 -7.60694
LeftToes  1.06248e-005 4.65855e-005 -8.18498e-006
